<svg xmlns="http://www.w3.org/2000/svg" height="536.82" width="585.99" version="1.0"><path d="M316.538 839.595c-25.317-2.61-50.371-8.259-73.06-20.09-31.973-10.211-62.155-29.225-84.621-54.317-20.258-25.62-32.662-56.294-50.057-83.713-14.564-39.302-24.482-81.588-17.013-123.562 2.5-32.794 7.932-65.975 25.656-94.362C141.16 417.907 176.4 377.89 218 347.737c25.202-13.93 52.872-25.01 81.25-30.428 62.113-4.157 127.282-.801 183.859 27.754 43.283 15.464 84.676 38.69 114.363 74.541 33.643 37.062 49.983 86.67 58.585 135.085 2.456 44.431 6.41 91.674-14.247 132.782-14.588 32.738-30.17 66.63-54.887 92.916-31.201 25.908-67.368 48.39-107.108 57.848-53.912 6.693-109.316 8.302-163.277 1.36" style="fill:#d0f4b4" transform="matrix(1.03015 0 0 1.01623 -91.927 -320.972)"/><path d="M316.17 837.768c-34.471-2.719-66.445-16.246-97.583-30.221-35.208-17.04-66.384-44.214-81.296-81.086-12.064-24.818-31.131-46.351-35.635-74.376-16.348-44.869-9.427-93.131-1.317-138.863 8.041-31.344 24.685-60.27 42.545-86.941 30.318-33.867 59.116-74.147 104.768-87.904 30.183-10.624 60.584-23.99 93.402-20.274 28.128.544 59.793 4.172 79.86 26.07-17.178 2.175-33.705 1.812-52.716-6.03-26.29-15.87-59.076-12.84-84.346 2.703-25.316 10.384 8.164 25.724 20.877 24.826 19.107 28.856 57.17 3.247 80.372 23.307 21.593-1.811 5.464 21.063 27.563 23.153 10.02 13.742 44.636.446 44.67 14.123 5.75 20.856 38.199 5.8 51.506 1.214-1.917-22.805-26.859-36.978-47.49-49.851-15.41-10.887-2.592-6.093 4.314-6.104 25.192-9.49 19.867 26.72 42.43 25.244.586-18.305 43.796 7.024 22.446 15.193 18.302 33.428 24.237-22.089.174-27.02-6.271-8.556-45.324-24.956-28.655-29.964 24.86 10.404 46.19 27.482 68.474 42.493 34.94 30.47 61.29 70.385 73.649 115.242 15.033 40.7 10.695 84.924 9.766 127.405-6.085 37.548-24.353 72.253-43.07 104.985-23.93 41.535-65.81 67.94-109.53 84.814-41.337 14.562-86.397 11.082-129.595 12.018-18.604-.064-37.194-1.267-55.582-4.156m-46.648-456.414c-22.577-10.52-.81 28.728 0 0m218.002 42.358c-20.366-5.847-12.903-17.476 4.95-10.399 14.47-1.602-1.571 18.35-4.95 10.4m-32.993-78.773c4.638-7.343 4.638 7.343 0 0" style="fill:#aad38b" transform="matrix(1.03015 0 0 1.01623 -91.927 -320.972)"/><path d="M318.403 837.313c-28.351-2.972-55.887-10.388-81.45-23.012-39.787-13.906-77.81-40.267-95.055-80.022-12.993-27.418-34.382-51.194-38.054-82.276-18.29-49.852-10.114-104.82 2.637-154.89 12.639-25.439 23.203-52.905 41.584-74.524 14.305-10.824 30.75-45.692 42.422-23.831 32.194-2.865-12.094-34.863 20.29-40.27 6.476-10.18 46.38-9.567 30.519-13.527 11.056-3.719 42.589-18.95 44.858-10.224-17.262 2.413-42.18 13.927-12.747 19.03 13.054 12.741 35.047 8.801 47.963 25.214 25.452 6.077 51.841-2.242 74.43 13.332-2.531 23.794 39.133 27.987 58.542 32.558 4.35 24.71 38.148 26.574 47.512 44.682 19 .631-12.419-24.36 13.138-24.67 11.636-8.122-11.16-32.777-17.527-44.478-15-9.084-59.066-37.292-20.54-27.754 14.383-1.737 17.488 39.779 34.079 18.247 11.027 1.006 31.984 11.98 15.968 19.27 10.423 13.954 29.236 40.025 45.04 39.758 9.568-21.101-19.5-41.456-30.672-59.015-8.933-13.483-34.35-22.11-38.363-32.924 25.508 6.022 42.25 28.854 65.623 39.606 18.234 18.334 35.43 39.185 50.734 60.647 15.126 26.247 24.264 55.86 31.6 85.115 8.182 51.2 7.119 106.049-15.939 153.542-18.71 48.162-50.329 93.794-98.392 116.205-46.491 29.443-103.342 28.81-156.352 28.97-20.679-.438-41.377-1.72-61.848-4.759m4.167-286.948c.845-17.974-30.412 12.73-3.14 1.847zm105.813-19.57c-11.045-25.51-10.887 5.53 0 0m-15.424-16.215c4.733-10.428 10.98-40.41 26.56-29.577-17.724 14.222 4.27 24.055 11.751 7.474-9.677-24.574-37.45-46.715-64.05-55.996-16.194 5.646-26.238 5.402-30.339-12.93-22.456-4.374-41.645-31.737-65.863-8.93-10.432 5.407 21.532 8.412 2.03 20.857-12.103 5.527 15.635 14-7.279 15.783-13.844 6.066 22.546-1.355 26.139 8.948 16.12 22.489 51.006-7.463 62.692 5.339-12.817 11.184-41.67 22.714-15.016 37.565 18.14 9.956 43.8-8.798 53.42 13.233zm-70.987-55.562c-5.081-14.152 12.823-.177 0 0m-18.441-15.924c-10.679-12.776 16.935 1.178 0 0m210.253 51.286c-5.721-6.081-.585 6.51 0 0m-8.392-7.263c-10.853-11.675-13.907-1.52 0 0m-261.068-36.245c-1.586-7.568-16.44 5.924 0 0m15.85-7.566c-1.172-6.25-7.044 6.472 0 0m-99.765-18.917c-4.638-7.343-4.638 7.343 0 0m75.95-15.606c23.339-11.555 17.58-44.224-11.48-28.45-9.06-.987-10.083-14.655-12.96 3.867 7.28 12.133 10.751 16.458 4.01 30.148 7.029 2.186 14.515-2.285 20.43-5.565m116.103-9.908c-.91-21.018-18.321 18.963 0 0m-152.978-13.16c9.941-26.12-20.589 9.763 0 0m67.217-10.45c-5.69-4.174-8.44 6.595 0 0m279.095 68.671c-3.601-12.086 11.098 3.965 0 0m-83.293-26.506c-16.052-10.499 29.344 1.688 4.852 1.914zm-66.2-74.382c-8.368-6.81 14.012 5.101 0 0m-25.174-1.892c-27.316-4.218-52.33-20.728-80.755-18.094 23.222-3.304 51.06-5.94 73.643 2.464 15.434.592 34.641 13.303 11.48 16.885z" style="fill:#92a99a" transform="matrix(1.03015 0 0 1.01623 -91.927 -320.972)"/><path d="M345.442 838.574c-34.175-3.276-69.202-6.962-100.24-22.762-28.558-8.429-54.795-25.625-76.154-46.244-11.68-24.957-26.479-46.13-41.815-68.997-19.727-26.446-28.264-59.459-33.07-91.704-2.993-37.642 2.853-75.81 12.151-112.188 14.336-29.149 28.674-58.994 50.88-83.073 9.964-13.695 24.522-32.859 33.293-14.848 29.556-2.489-6.999-32.348 22.25-39.474 5.574-10.892 44.581-10.708 28.559-14.323 11.056-3.719 42.589-18.95 44.858-10.224-22.752 1.759-38.507 14.843-12.65 28.885 7.277 9.56-40.415 25.427-37.04 9.692-16.383 14.175 16.855 24.755-1.662 39.733 26.9 8.078 37.537-41.373 64.962-13.364 12.53 6.442-28.396 20.76-3.832 20.517 8.741 12.713-14.502 18.38-.879 27.3-13.646-.203-18.144 13.7-1.104 11.405 11.61-15.026 29.036 31.861 49.628 12.37 5.425-8.151 22.403-13.238 16.673 1.667-6.175 8.47-29.846 11.506-9.3 26.904 13.799 20.98 40.383 5.084 53.06 6.742 13.814 29.038 9.612-23.09 28.924-23.994 18.41-4.547-16.593 26.608 10.623 18.694 11.479-7.032 9.892-32.26-4.34-26.099-13.381-14.853-1.605-33.979 13.153-14.41 15.117 3.05 3.95 32.584 20.753 25.227-5.89-11.646 9.409-20.832-10.762-29.425-9.822-5.536-37.355-27.529-13.13-17.059 19.315 2.443 32.165 26.676 49.266 22.676-11.314 20.165 25.272 2.86 4.773-5.89 6.624-13.15 26.08-13.961 13.517-32.754 17.886 2.302 40.511 24.69 55.225 26.372 9.547-20.24-19.523-40.19-25.783-60.062 25.09 3.09 38.799 27.467 55.354 44.387 26.363 29.225 38.661 67.734 48.152 105.132 7.25 42.455 8.01 87.36-3.963 128.963-19.922 48.707-42.436 101.134-88.56 130.568-25.316 15.762-52.629 31.298-82.362 36.286-42.887 4.75-86.332 5.746-129.408 3.374M159.897 714.558c-6.65-12.16-25.3-35.525-33.937-30.602 8.788 13.166 12.443 36.936 33.937 30.602M322.57 550.365c.845-17.974-30.412 12.73-3.14 1.847zm102.912-24.73c-20.955-16.189 5.26 25.332 0 0m-90.415-4.771c7.317-5.602 21.412-25.85-.175-11.35-8.608 4.519-26.285 22.605-4.36 12.155zm-17.73-14.323c10.554-19.302-11.88 8.958-11.541-8.833-2.604 7.216 5.187 16.438 11.54 8.833m216.447-12.16c-5.721-6.082-.585 6.51 0 0m-218.761-3.184c-11.34-1.88 3.404 3.67 0 0m183.84-.938c-13.153-16.561-9.5 10.065 0 0m26.53-3.142c-10.854-11.675-13.908-1.52 0 0m-261.069-35.299c-1.686-12.36-21.845 9.945 0 0m15.85-8.512c-1.172-6.25-7.044 6.472 0 0m-99.765-18.917c-4.638-7.343-4.638 7.343 0 0m38.788-38.211c9.77-31.122-24.971 8.728 0 0m149.554 79.768c11.485-13.357 6.305 9.239 0 0m-26.779-6.928c-5.081-14.152 12.823-.177 0 0m-18.441-15.924c-10.679-12.776 16.935 1.178 0 0m242.265.842c-3.601-12.086 11.098 3.965 0 0m-198.91-11.98c10.762-15.215 4.785 13.834 0 0m-28.748-22.025c-.1-13.897 8.677 10.571 0 0m-27.195-87.692c35.877-6.504 7.691 7.334 0 0" style="fill:#9ecf66" transform="matrix(1.03015 0 0 1.01623 -91.927 -320.972)"/><path d="M345.442 838.574c-34.175-3.276-69.202-6.962-100.24-22.762-28.558-8.429-54.795-25.625-76.154-46.244-11.688-24.957-26.467-46.145-41.84-68.997-29.461-43.034-39.68-97.714-31.237-148.964 5.132-25.645 4.297-54.188 22.311-75.197 3.083-15.729 29.805-15.239 13.964-26.718 5.349-25.5 33.012-40.915 53.26-22.104 22.512 10.12 44.943 3.172 67.113 10.66-.387 21.326 10.733 12.366 24.02 9.679 5.026 9.686 15.756 15.513 22.315 5.619 14.875 21.823 42.07 26.17 58.898 8.885 17.529 19.502-35.353 16.775-6.903 37.415 14.347 21.582 40.448 3.867 54 7.59 5.431 13.808 13.593 11.235 15.271 24.194 7.29 6.433 34.28 3.976 16.053-9.676-11.25-25.346 11.921-4.082 16.393-7.711-13.849-7.871 10.594-45.209-13.448-39.054-13.382-14.853-1.606-33.979 13.152-14.41 15.117 3.05 3.95 32.584 20.753 25.227-5.89-11.646 9.409-20.832-10.762-29.425-9.822-5.536-37.355-27.529-13.13-17.059 19.315 2.443 32.165 26.676 49.266 22.676-8.464 16.682 18.517 5.171 21.996 23.502 14.995 10.137 33.355 16.582 40.166 34.623 14.062-4.806-3.056-29.408-7.705-38.881-20.18-15.16-32.157-33.44-36.8-55.318 14.242-2.526 39.4 15.173 54.275 28.532 1.744 14.92 37.19 43.672 17.87 13.645-6.492-27.03-24.887-47.195-37.404-71.227-13.01-17.36 27.523 4.387 29.688 13.831 16.886 23.71 36.63 44.697 50.014 69.441 16.252 38.155 26.128 79.174 24.164 120.867.518 34.648-6.16 69.136-22.84 99.75-17.394 38.833-40.284 77.134-77.463 99.893-30.398 18.324-63.414 36.149-99.861 36.399-36.297 2.599-72.814 3.544-109.155 1.319M159.897 714.558c-6.65-12.16-25.3-35.525-33.937-30.602 8.788 13.166 12.443 36.936 33.937 30.602m235.571-129.893c13.774-3.892-14.047-20.776 7.782-17.398 12.51-6.033 29.263 18.998 28.932-.979-25.468-3.963-47.855-17.466-72.184-25.857 4.109 8.779 24.257 31.44-1.861 19.983-9.987 6.344-32.96-17.387-18.756 4.155 16.596 7.04 35.598 4.78 45.266 23.473 4.022 2.956 7.83-1.607 10.821-3.377m-67.1-27.035c3.383-12.222.43-18.252 14.55-16.94-1.718-38.214-29.81 18.76-40.17-10.333.02-20.79-20.818-40.39-39.207-25.985-3.687 21.598-36.298-12.542-30.07 18.262 11.303 11.312 32.701 10.768 39.107 27.634 19.511-7.226 39.044 20.533 55.79 7.362m-44.445-25.386c2.054-6.338 7.545 3.612 0 0m71.488 18.829c-3.588-11.206-7.936 16.148 0 0m115.903-11.181c.456-15.336-9.024-29.121-16.224-6.89-1.98 8.343 18.109 23.552 16.224 6.89m36.945 2.274c-8.485-13.123-7.063 12.12 0 0m-173.192-21.302c7.317-5.602 21.412-25.85-.175-11.35-8.608 4.519-26.285 22.605-4.36 12.155zm-110.276-7.945c.146-11.707 15.744-21.631 1.222-27.403 13.48 7.42 42.62 11.874 24.267-11.77-13.997 7.287-39.64-.007-35.144 23.383-6.826 6.827-.79 24.075 9.655 15.79m92.546-6.378c10.554-19.302-11.88 8.958-11.541-8.833-2.604 7.216 5.187 16.438 11.54 8.833m-127.562-17.363c14.278-15.746.769-47.06-19.462-25.825-12.447-6.533-30.292.052-23.046 13.3 12.172-10.876 26.896-4.995 35.963-10.609-11.498 10.83-4.967 22.703 5.694 25.472zm125.248 2.019c-11.34-1.88 3.404 3.67 0 0m183.84-.938c-13.153-16.561-9.5 10.065 0 0m-221.29-57.118c-3.936-11.52-20.195-41.121 1.891-41.209 15.457 1.339 33.013 11.406 13.088 20.882-13.575.887-6.203 29.155-14.978 20.327m89.314-1.185c10.761-15.215 4.784 13.834 0 0m-124.008-9.459c.412-15.395 18.746 2.732 0 0m95.26-12.566c-.1-13.897 8.676 10.571 0 0m-132.302-16.492c-3.732-13.97-13.218-27.012 8.647-34.978 16.344-18.235 65.795-8.11 57.571 11.694-13.027 10.703-26.728 6.165-39.387 5.331 4.25 12.295-28.835 35.844-26.83 17.953m14.532-7.964c8.666-25.642-24.571 10.736 0 0m91.507-63.236c18.654-7.364 16.337 7.518 0 0" style="fill:#8eb26d" transform="matrix(1.03015 0 0 1.01623 -91.927 -320.972)"/><path d="M353.833 839.328c-37.714-4.076-76.774-6.87-110.858-25.09-29.748-9.57-59.56-26.01-78.618-51.21-5.629-24.871-25.606-40.482-37.15-62.457-5.742-6.87-25.894-41.456-4.903-20.524 10.093 15.25 21.02 44.352 42.55 32.158 14.576.877 22.487 39.323 32.894 17.379-19.063.3-14.22-7.706.613-7.42 8.442-9.104-27.302-17.157-19.582-12.454 5.72-19.21-14.822-9.34-15.373-25.289-17.779-17.721-52.971-15.521-60.888-44.825-14.448-47.137-5.985-97.636 6.38-144.122 5.866-19.222 27.369-28.817 32.15-43.958-19.657-13.503 25.36-46.305 38.537-22.375 23.211 4.78 42.822 8.038 65.353 8.919 7.658 7.154 7.416 24.585 24.452 13.72 20.429 8.609 40.174 4.934 57.356 23.054 10.27-.98 51.221-16 26.155 1.99-26.905 14.444 14.157 40.662 31.142 34.135 27.816-8.762 33.77 34.998 63.422 30.014 11.513 9.158 38.193 23.653 29.811-2.223 23.566-5.48-6.172-29.959-18.32-27.97.826-22.45-13.698-36.496-25.718-52.516 1.994-17.138 35.793 9.54 28.11 22.378 15.772 17.449 6.179-.765 12.037-7.673 7.729-14.283-46.726-31.422-29.916-36.757 18.83 9.068 42.862 19.69 53.91 35.422 18.9 17.531 45.972 26.757 58.299 50.588 9.907 18.972 16.717 13.36 12.296-5.472 1.789-26.475-20.934-40.408-35.7-58.372-1.154-9.407-28.302-46.837-5.549-29.152 28.943 2.64 44.12 32.787 56.53 55.798 9.399-1.895 20.306 20.581 16.984-.042-13.871-21.743-17.642-49.26-36.433-67.964-5.276-9.791-30.441-38.317-3.338-22.001 26.005 14.044 35.682 44.815 51.05 68.636 11.637 26.38 33.367 47.76 37.735 77.067 6 39.556 7.023 80.916-1.955 120.064-18.674 50.507-40.528 105.078-87.266 136.086-37.15 26.477-81.856 43.21-127.945 41.7-26.07.76-52.175 1.493-78.254.758M184.14 689.333c-5.073-12.809-6.922 9.874 0 0m424.575-26.522c-.546-30.197-10.79 31.882-.572 3.982zm-198.938-67.962c-27.52-2.548 1.514-38.156 16.637-16.388 12.294 3.901 31.17-9.128 13.2-15.88-2.891-14.959-43.584 5.023-33.41-15.032-29.97 12.423-31.69-37.75-60.008-22.727-24.98-3.352 17.346-24.734-6.574-18.976-13.707 4.979-21.893 26.059-29.21 29.28-11.838-15.523-5.383-41.947-33.887-39.078-18.356-6.675-19.53 23.493-39.192 8.741-13.515 25.774 23.558 38.961 40.516 51.641 25.06 5.345 50.453 26.236 77.498 22.287 18.129 1.63 35.016 20.443 54.43 16.132m99.613-48.65c10.431-10.115-29.454-27.618-12.595-5.576 2.62 4.001 7.427 8.766 12.595 5.576m-284.598-33.28c-4.401-32.581 46.538-1.358 33.754-34.522-8.102-16.82-48.258-.96-43.409 18.732-6.826 6.827-.79 24.075 9.655 15.79m2.06-25.378c-1.732-9.381 11.641 9.535 0 0m90.486 19c11.45-40.394-34.989 8.968 0 0m180.867-18.003c-21.376-11.923 13.255 30.005 0 0m-308.43.64c12.308-13.466 5.25-52.85-17.337-28.724-9.56 9.175-26.296-17.422-25.594 7.886-12.04 23.183 27.89-17.712 28.268 10.907 3.684 1.555 11.76 19.032 14.664 9.931m177.113-57.222c10.761-15.215 4.784 13.834 0 0m-92.335-13.288c-.693-14.059-9.514-36.455 12.726-24.477 28.089 4.02 8.028 16.166-4.72 23.133-1.19.376-6.714 5.4-8.006 1.344m63.586-8.737c-.1-13.897 8.677 10.571 0 0m-133.487-9.777c12.086-21.743 12.068 2.897 0 0m18.559-13.43c10.69-12.33-.353 12.255 0 0m-21.239-11.288c4.445-25.954 57.83-35.548 73.263-9.803-2.6 12.398-31.262 12.142-41.365 4.538-7.945 1.524-27.896 16.03-31.898 5.265" style="fill:#6f8d73" transform="matrix(1.03015 0 0 1.01623 -91.927 -320.972)"/><path d="M323.064 834.592c-30.896-3.005-59.732-13.243-88.449-23.694-20.787-10.406-55.728-26.025-57.411-48.25 14.498-5.963-32.802-26.022-19.68-36.027 13.142 12.94 13.762 2.5 6.251-6.28 8.08 6.53 28.808 33.873 37.721 23.778-17.25-3.693 10.014-19.506-15.743-15.838-7.207-8.579 28.087-2.596 8.966-13.865-7.667-10.721-20.643 5.348-16.642-15.357-6.726-8.549-25.232-27.379-40.604-28.343-26.604-7.75-40.603-32.84-41.332-60.024-3.458-38.74 2.602-77.977 12.758-115.218 5.882-19.222 27.32-28.802 32.172-43.954-13.898-11.667 24.833-46.422 34.452-20.973 21.968-2.54 37.999 12.994 59.334 4.614 24.053 2.198 5.974 19.339 1.361 24.14 14.383.735 50.664-13.557 31.988 12.923-4.062 18.643 32.175 1.16 13.138 18.766-21.775-7.372-21.677 30.076-44.01 13.799-13.538 25.779 23.52 38.85 40.41 51.642 22.034 3.766 41.974 26.138 66.337 23.911 24.737-9.66 40.891 20.594 65.695 14.71-28.231-5.05 3.235-36.418 17.866-16.812 15.646 4.313 30.73-8.382 11.97-15.467-1.557-18.125-41.208-.144-23.522-23.8 21.168-4.824 48.776 22.265 61.741 10.82-8.042-15.675 19.669-10.754 6.358-27.766-9.875-25.418 25.9-4.08 36.857-12.309 5.258 19.556 20.47 5.976 2.59-4.537 9.193-17.04 34.902 25.64 45.699 29.635-.718-24.745-4.044-52.978-28.97-65.668-12.622-11.163-13.11-35.268 7.413-23.537 24.628 6.724 29.444 40.658 49.18 47.667 10.79-8.073-15.663-38.23-18.48-55.929-5.214-6.137-24.125-47.118-3.64-29.037 14.534 24.753 31.648 48.06 46.459 72.871 13.096 23.08 29.318 45.111 29.276 73.317 6.66 48.424 4.71 99.73-18.718 143.754-19.482 44.441-47.678 87.838-92.58 109.917-26.825 14.7-55.073 28.981-86.573 27.967-43.055 1.055-86.862 4.434-129.638-1.546m-17.715-56.574c-13.706-9.462-4.28 11.725 0 0m-85.78-37.722c-5.258-13.863-16.053-19.836-6.501-1.265.985 1.499 5.959 5.441 6.502 1.265m-35.43-50.963c-5.073-12.809-6.922 9.874 0 0m424.575-26.522c-.546-30.197-10.79 31.882-.572 3.982zM509.39 546.199c10.431-10.115-29.454-27.618-12.595-5.576 2.62 4.001 7.427 8.766 12.595 5.576m-4.51-25.335c-4.637-7.343-4.637 7.343 0 0m-280.088-7.945c-3.24-31.62 44.839-1.682 35.635-35.06-8.821-26.017-28.092 1.777-43.737 6.081 2.98 9.268-15.262 36.653 8.102 28.979m2.06-25.378c-1.732-9.381 11.641 9.535 0 0m-37.076 1.637c12.307-13.466 5.249-52.85-17.338-28.724-9.56 9.175-26.296-17.422-25.594 7.886-12.04 23.183 27.89-17.712 28.268 10.907 3.684 1.555 11.76 19.032 14.664 9.931m213.475 65.735c2.513-7.011 7.834 6.748 0 0m-7.002-9.71c13.966-20.329 4.602 10.424 0 0m-86.895-11.25c-3.103-15.73 9.992 11.1 0 0m68.722 2.044c6.988-7.741 6.988 7.741 0 0m-76.455-13.04c10.945-12.246 7.369 7.694 0 0m-20.513-48.55c3.901-6.663 3.616 9.16 0 0m-6.83-56.76c-3.087-11.675 9.82-28.756 10.493-9.424-1.588 2.42-6.69 18.32-10.493 9.425m-69.626-17.493c12.086-21.743 12.068 2.897 0 0m18.559-13.43c10.69-12.33-.353 12.255 0 0m26.196-32.215c4.026-6.856 5.168 4.192 0 0" style="fill:#6e924e" transform="matrix(1.03015 0 0 1.01623 -91.927 -320.972)"/><path d="M324.018 833.852c-24.724-7.571-56.061-1.239-74.663-22.754-20.038-5.677-54.32-10.864-64.54-36.551 27.29-15.013-31.182-21.006-29.373-45.719-2.838-9.27 23.991 15.186 11.08-2.794-7.125-17.201 16.542 21.066 27.001 19.137 16.656 12.763 4.116-31.305 18.027-8.692 6.867 7.859 35.241 24.18 18.536 2.318-2.99-10.962-10.564-17.984-8.7-25.032-17.36-3.558-19.024-9.797-16.434-24.586-14.024-8.444-8.51-23.7-31.047-23.874-11.885-13.215-17.147-1.384-20.931-.07-8.795-16.675-24.51-19.66-38.047-22.089-2.181-25.298-27.161-32.806-18.03-61.983.98-28.943 5.95-57.901 13.679-85.652 9.246-19.225 17.723-29.497 31.618-37.096-12.252-18.819 16.37-48.872 35.664-26.88 23.984.154 47.387 12.189 69.19 11.267 7.275 12.374-25.703 14.004-3.265 16.356 14.177-3.473 41.507-8.964 24.423 13.066-3.842 18.116 31.718 2.174 12.723 18.55-26.205 9.358-15.654-40.765-44.79-21.015-7.823.924-21.192 2.793-8.035 8.814-17.997-3.012-21.922 46.455-1.894 32.298 7.445-24.266 11.775.777 7.647 12.433 18.03 24.28 44.645 44.003 75.429 47.357 21.352 7.337 35.739 29.752 59.457 17.765 14.452 2.995 37.336 19.294 48.044 11.278-17.727-3.039-18.041-31.933 4.041-23.203-17.499 18.81 42.667 4.883 27.744-14.268-6.2-18.442-49.177 2.566-32.453-23.263 24.272-6.506 47.977 26.04 66.265 15.092-11.739-25.782 40.56 8.375 30.785-16.757-9.81-7.308-50.988-27.905-17.511-28.992 12.3 10.525 26.008-7.732 32.783 11.66 18.518 2.183-24.873-28.454 6.229-17.199 21.606 4.498-.134 24.282 20.007 23.666 9.346 19.43 25.648 15.28 13.761-5.711 12.655-30.39-24.958-44.369-34.463-67.92-10.51-22.12 33.745-2.836 35.157 10.512 8.63 12.372 13.257 36.594 22.943 42.39-4.877-26.457 22.52 10.886 12.23-11.391-6.203-25.369-20.175-48.663-32.66-71.652-13.73-10.599-1.854-32.403 6.944-9.21 15.175 27.683 34.226 53.364 46.332 82.635 1.626 13.7-2.409 30.68 14.443 22.873 11.643 21.946 12.072 49.437 12.638 74.178.447 32.522-1.427 65.736-16.531 95.29-19.565 54.403-56.866 104.605-111.344 127.608-35.771 21.218-78 21.916-118.325 21.706-27.178-.707-55.236 3.478-81.784-3.896m12.577-33.496c-14.56-6.72-23.08-1.309-2.817 2.188l2.409-.478zm-73.98-8.848c13.222 3.616-25.502-31.296-11.07-8.354 6.781 9.896-5.772 9.21 11.07 8.354m42.734-13.49c-13.706-9.462-4.28 11.725 0 0m-32.265-15.495c-14.627-14.887 28.147-16.303 5.385-28.95-8.71-3.562-51.065-10.713-40.13 1.17 13.654 2.605 32.85 14.4 8.372 17.935-22.465-2.44 32.371 21.125 26.373 9.845m46.81-1.797c9.346-16.288-22.7-6.155-10.201-22.817-9.005-29.42-33.333-3.93-16.657 14.913 6.252 6.481 18.135 13.363 26.858 7.904m19.021-8.134c-11.284-11.762-7.293 11.002 0 0m-80.185-31.1c-6.991-11.889-6.408 7.026 0 0m-30.78-30.39c-12.316-9.692 8.21 12.786 0 0m383.119-24.817c8.536-33.1-27.337 5.875-4.737 11.43 3.156-3.02 3.804-7.429 4.737-11.43m-168.66-79.213c-2.512-7.012-7.833 6.747 0 0m12.902-3.04c8.948-11.474-23.573 4.9 0 0m45.098-20.606c-14.68-6.104 5.712 8.763 0 0M234.488 537.89c-4.477-7.542-2.955 7.025 0 0m318.876-2.726c-8.538-16.582-5.388 11.053 0 0m57.119-2.042c-8.64-7.157 2.027 11.259 0 0M504.88 520.864c-4.638-7.343-4.638 7.343 0 0M189.733 489.47c15.77-17.294 2.495-59.146-20.003-29.246-6.588 12.134-19.12-25.547-22.82.764-5.208 15.873-2.581 19.638 10.905 8.925 17.238-11.038 21.163 28.609 31.918 19.557m-86.37 147.447c-6.149-17.444 12.096-1.52 0 0M397.18 543.09c22.456-16.656 0 10.121 0 0m-19.105-7.094c6.988-7.741 6.988 7.741 0 0m-72.726-15.133c4.638-7.343 4.638 7.343 0 0m326.335-8.401c2.408-8.99 3.917 7.026 0 0M226.85 487.54c-1.73-9.381 11.642 9.535 0 0m54.257-13.135c3.901-6.662 3.616 9.161 0 0m-1.959-59.948c-7.836-15.387 10.523-19.662 4.688-4.416.863-5.466-3.348 7.717-4.687 4.416m-29.742-59.949c4.026-6.856 5.168 4.192 0 0" style="fill:#6a9231" transform="matrix(1.03015 0 0 1.01623 -91.927 -320.972)"/><path d="M324.018 833.852c-24.724-7.571-56.061-1.239-74.663-22.754-20.038-5.677-54.32-10.864-64.54-36.551 27.29-15.013-31.182-21.006-29.373-45.719-2.838-9.27 23.991 15.186 11.08-2.794-7.125-17.201 16.542 21.066 27.001 19.137 16.832 12.191 4.153-32.37 19.04-7.63 15.275 9.512 50.52 35.028 60.197 23.39-11.865-15.18 26.69-11.14 7.05-29.735 15.244-11.207 4.662 34.987 29.004 30.634 18.54 4.82 13.562-17.71-1.443-13.701 8.337-20.769-22.455-43.997-39.349-40.312 8.499 25.13-23.122 4.472-36.848 11.601-14.493-7.519-41.045-14.022-18.977-31.188 10.965-3.285 45.017 24.572 28.709-3.852-16.187-1.957-24.422-34.44-46.571-20.913-14.418-26.673-51.577 5.147-56.99-25.486-22.233-19.854-50.764-43.362-38.802-77.41 5.123-22.599 9.904 33.025 17.353 18.679-16.556-24.316-9.81-56.277-6.147-83.357 10.501.333 30.175 7.032 15.804-9.33 12.809-2.625 30.448 5.654 23.749 17.769 15.002 12.597 34.014 10.364 48.823 23.246 20.996 4.153 36.413 11.77 50.425 27.363 28.35 6.246 57.852 11.955 82.654 27.256 15.998 19.692 40.057-2.082 59.742 14.137 15.45 7.57 28.401 8.97 36.057-9.565 20.184-3.007 36.046-26.358 8.153-33.3-13.402 5.124-35.87-6.072-14.542-14.75 27.348 2.385 48.311 20.177 75.166 25.82 14.409 1.858 33.753 36.426 34.74 29.555-12.743-7.365-10.374-44.798 5.41-28.548 24.841 14.782-18.43-28.538-28.602-33.276-14.786-2.622-40.569-28.356-9.66-23.258 11.74 9.024 24.278-7.91 30.773 10.964 18.518 2.182-24.873-28.455 6.229-17.2 21.644 4.348-.185 24.454 19.997 23.462 10.43 10.099 31.616 35.339 40.065 31.661-14.821-24.946-18.628-57.042-39.121-80.26-16.326-6.293-38.96-48.062-5.573-31.461 27.316 11.211 27.849 46.858 44.779 67.69 3.833 15.797 24.642 35.678 17.731 5.563-2.978-28.689-19.1-52.454-30.384-78.195-2.471-9.033-29.213-40.363-9.668-36.3 18.268 30.115 39.274 59.284 52.311 92.246 4.254 12.82-1.72 54.225 12.792 49.564.38-10.904 4.582-37.19 8.433-11.249 8.186 39.177 7.505 80.153 1.326 119.517-18.734 61.073-50.29 124.355-109.962 154.308-30.819 17.722-65.374 29.11-101.248 27.843-37.22-.742-75.567 5.07-112.13-3.31m-76.793-34.616c2.798-15.63 31.349 1.461 12.808-15.676-10.662-17.66-47.06-6.593-26.274 13.716 2.422 5.118 11.818 11.544 13.466 1.96m89.37 1.12c-14.56-6.72-23.08-1.309-2.817 2.188l2.409-.478zm-31.246-22.338c-13.706-9.462-4.28 11.725 0 0m33.566-25.426c-11.284-11.762-7.293 11.002 0 0m-21.538-48.431c-13.167-7.379-28.949 7.85-3.5 1.312zm-10.505-11.775c.437-11.708-24.448 11.032-2.19 5.123l1.458-1.761zm-13.742-9.001c-8.653-4.207-.14 9.71 0 0m-12.955-3.622c-15.971-16.014.353 10.212 0 0m331.83-11.602c8.807-25.362-15.838-19.125-15.757.626 2.387 11.66 15.108 11.987 15.757-.626m-389.047-42.783c-7.703-6.353-21.338-23.125-13.05-4.207 8.531 4.65 33.8 21.49 13.05 4.207m148.008-3.657c-11.34-1.879 3.404 3.67 0 0m-183.675-9.562c-10.618-5.335 7.365 11.363 0 0m13.95-5.518c12.357-22.971-18.444 12.97 0 0m282.622-3.602c4.16-20.511-10.312-.514-5.06 6.733l2.268-1.978zm-320.378-.061c1.358-14.27-7.261-22.044-6.667-2.16-1.285 4.13 11.532 10.068 6.667 2.16m299.35-3.138c16.297-35.552-50.126-13.687-19.24 4.854 6.135 3.335 20.354 7.04 19.24-4.854m-17.332 1.26c19.838-19.894 16.411 12.012 0 0m-297.25-10.718c-15.623-10.774-9.754 7.388 0 0m405.111-10.675c-9.378-12.961-4.489 9.025 0 0m-399.276-35.97c-3.47-16.026-21.606 5.35 0 0m399.276-8.574c-8.538-16.582-5.388 11.053 0 0m-426.567-6.094c-13.24-2.134 1.295 3.353 0 0m378.083-8.205c-4.638-7.343-4.638 7.343 0 0m-359.901-22.589c-6.671-11.447-17.889 6.998 0 0M206.56 669.96c-9.615-9.759 22.536 4.305 0 0m-103.198-33.042c-6.149-17.444 12.096-1.52 0 0M397.18 543.09c22.456-16.656 0 10.121 0 0m-19.105-7.094c6.988-7.741 6.988 7.741 0 0m-182.883-14.353c-.651-17.777 13.304 6.042 0 0m110.157-.78c4.638-7.343 4.638 7.343 0 0m-128.67-10.405c-17.26-2.072-18.913-22.973.342-7.939 10.03 6.168 30.573-3.554 11.235 9.059-3.56 2.573-8.32 1.063-11.576-1.12m24.243-12.295c6.035-12.433 6.035 12.432 0 0m71.42-7.056c-16.446-1.426-8.935-37.556-33.534-22.232-19.32 4.325-45.67 3.699-47.203-18.947-18.83 8.685-37.376 8.505-54.074-5.454 10.571-35.857 40.7-9.233 64.466-10.785 11.76 14.84 51.61-4.021 43.197 19.313-26.204 8.627 18.458 4.198 27.665 2.825-5.044 13.47-6.558 31.973 14.232 26.702.066 7.751-7.77 11.717-14.749 8.578m8.765-16.702c3.901-6.662 3.616 9.161 0 0m-1.959-59.948c-7.836-15.387 10.523-19.662 4.688-4.416.863-5.466-3.348 7.717-4.687 4.416m-29.742-59.949c4.026-6.856 5.168 4.192 0 0" style="fill:#669313" transform="matrix(1.03015 0 0 1.01623 -91.927 -320.972)"/><path d="M324.018 833.852c-24.724-7.571-56.061-1.239-74.663-22.754-20.038-5.677-54.32-10.864-64.54-36.551 27.29-15.013-31.182-21.006-29.373-45.719-2.838-9.27 23.991 15.186 11.08-2.794-7.125-17.201 16.542 21.066 27.001 19.137 16.832 12.191 4.153-32.37 19.04-7.63 15.275 9.512 50.52 35.028 60.197 23.39-11.865-15.18 26.69-11.14 7.05-29.735 15.244-11.207 4.662 34.987 29.004 30.634 18.54 4.82 13.562-17.71-1.443-13.701 10.256-19.418-28.302-50.734-40.375-36.187 8.266 19.375-25.293.097-35.822 7.476-14.493-7.519-41.045-14.022-18.977-31.188 10.756-5.088 41.811 25.508 30.656-2.253-14.9-11.054-29.596-32.464-48.749-22.454-13.688-26.77-51.592 5.086-56.669-25.612-18.098-19.28-48.592-36.865-39.987-68.18-2.263-16.452 8.782-20.652 8.37-1.729 1.888 20.87 23.665 7.603 24.709 19.13 10.589 12.616 31.382-9.24 26.326 13.823 6.043 10.87 19.828-5.738 26.268 12.283 8.126 9.578 24.345-16.81 26.505 8.147 7.143-9.954 33.398 9.451 10.348 1.281-12.283-.675 25.55 23.127 12.81 2.312 22.909 14.996-17.408-32.38 7.183-11.724 11.342 14.645 36.044 21.326 52.336 22.048 6.462-18.235-26.48-37.986-43.207-26.448-7.027-12.008-14.26-25.783-21.574-10.432-14.471-5.397-11.135-28.824-34.46-25.494-18.717-6.692-46.763-6.125-39.983-32.188-14.154-12.213-36.028-6.878-46.96-14.055.959-15.734-1.58-41.398 22.194-28.352 21.042-2.584 30.966 20.765 53.407 18.006 15.937 21.08 50.732 10.283 62.731 37.038 28.706 6.788 57.69 13.286 84.027 26.514 16.233 22.943 41.67.092 62.468 16.441 15.45 7.57 28.401 8.97 36.057-9.565 20.184-3.007 36.046-26.358 8.153-33.3-13.402 5.124-35.87-6.072-14.542-14.75 27.348 2.385 48.311 20.177 75.166 25.82 20.566 10.696 41.575 52.074 56.938 14.805-15.447-21.793-34.442-43.857-60.055-54.695-25.163-14.44 3.605-19.808 17.045-12.178 9.124-15.6 23.936 21.801 22.7 2.346-30.82-23.989 29.024-10.1 10.962 8.079 20.955 4.446 32.86 32.183 51.948 37.584-13.988-24.89-18.223-55.53-36.842-79.455-11.845-3.937-43.12-47.983-14.1-35.234 30.377 3.574 32.469 42.229 46.96 63.106 5.223 13.705 27.258 45.139 21.212 10.534-2.978-28.689-19.1-52.454-30.384-78.195-2.471-9.033-29.213-40.363-9.668-36.3 18.268 30.115 39.274 59.284 52.311 92.246 4.254 12.82-1.72 54.225 12.792 49.564.38-10.904 4.582-37.19 8.433-11.249 8.186 39.177 7.505 80.153 1.326 119.517-18.734 61.073-50.29 124.355-109.962 154.308-30.819 17.722-65.374 29.11-101.248 27.843-37.22-.742-75.567 5.07-112.13-3.31m-76.793-34.616c2.798-15.63 31.349 1.461 12.808-15.676-10.662-17.66-47.06-6.593-26.274 13.716 2.422 5.118 11.818 11.544 13.466 1.96m89.37 1.12c-14.56-6.72-23.08-1.309-2.817 2.188l2.409-.478zm-31.246-22.338c-13.706-9.462-4.28 11.725 0 0m33.566-25.426c-11.284-11.762-7.293 11.002 0 0m-21.538-48.431c-13.167-7.379-28.949 7.85-3.5 1.312zm-10.505-11.775c-1.26-6.716-36.624-18.409-30.716-9.047 5.994 4.495 27.366 23.759 30.716 9.047m305.133-24.225c8.807-25.362-15.838-19.125-15.757.626 2.387 11.66 15.108 11.987 15.757-.626m-213.977-6.034c-6.837-12.788-13.447-14.288-15.896-3.172-17.538 5.804 13.199 6.777 15.896 3.172m18.114-10.804c-14.51 2.735-1.032-7.73-5.566-11.285-14.24 5.374-13.604 24.214 5.566 11.285m-21.62-13.65c-14.432-3.827-23.463-20.881-43.962-15.992-21.435-.928-41.472-5.13-59.044-12.653-4.444 5.738 20.056 8.892 21.967 20.721 13.8 5.159 23.358-9.856 37.969 1.052 15.016-7.606 36.501 17.355 43.07 6.873m88.888-32.862c5.476-17.949-48.123-39.198-48.26-7.493 8.37 10.502 40.949 19.025 48.26 7.493m69.954-69.648c-8.538-16.582-5.388 11.053 0 0m-48.484-14.3c-4.638-7.342-4.638 7.344 0 0M103.363 636.918c-6.149-17.444 12.096-1.52 0 0M215.84 601.37c4.722-7.421 5.127 3.98 0 0m-101.497-30.514c-9.213-29.07 20.479 8.682 0 0m-4.795-27.182c5.943-11.784 3.947 8.324 0 0m287.632-.584c22.456-16.656 0 10.121 0 0m-19.105-7.094c6.988-7.741 6.988 7.741 0 0m-72.726-15.133c4.638-7.343 4.638 7.343 0 0m-33.007-29.756c-16.446-1.426-8.935-37.556-33.534-22.232-19.32 4.325-45.67 3.699-47.203-18.947-18.83 8.685-37.376 8.505-54.074-5.454 10.571-35.857 40.7-9.233 64.466-10.785 11.76 14.84 51.61-4.021 43.197 19.313-26.204 8.627 18.458 4.198 27.665 2.825-5.044 13.47-6.558 31.973 14.232 26.702.066 7.751-7.77 11.717-14.749 8.578m8.765-16.702c3.901-6.662 3.616 9.161 0 0m-1.959-59.948c-7.836-15.387 10.523-19.662 4.688-4.416.863-5.466-3.348 7.717-4.687 4.416m-29.742-59.949c4.026-6.856 5.168 4.192 0 0" style="fill:#516d4e" transform="matrix(1.03015 0 0 1.01623 -91.927 -320.972)"/><path d="M336.906 833.3c-11.817-8.355 15.166-6.455 5.448-20.626 30.055-9.663-28.253-36.073-30.272-11.933-15.57 13.591-24.103-19.787-43.083-15.528-11.893-16.79-31.165-16.635-41.733-5.285-2.708-7.613-34.731-9.172-22.861-18.014 11.341 11.485 17.04-.906 8.925-10.536 20.33-6.855 53.866 36.663 65.104 14.379-8.285-17.791 28.612 3.555 10.067 4.916-3.692 33.473 42.107 10.006 55.21 11.629-12.483-6.967-32.38-18.191-11.334-22.18 29.132 12.79-1.092-24.857-7.196-35.004-2.694-17.684-22.948-19.296-14.588-4.446-13.029 9.072-40.703-31.79-42.605-5.092 3.067 12.826-20.4-3.932-29.393 2.95-11.59 4.836-21.656-13.641-31.264-15.42.17-18.214 15.048-21.113 22.042-4.767 5.918-7.987 18.328 13.089 14.975-6.321-8.754-19.931-34.339-33.719-51.734-30.907-15.67-23.014-50.002 6.888-55.179-23.204-16.954-18.75-47.276-35.071-39.864-65.04-1.507-14.385 7.318-27.053 8.247-4.869 1.888 20.87 23.665 7.603 24.709 19.13 10.589 12.616 31.382-9.24 26.326 13.823 6.043 10.87 19.828-5.738 26.268 12.283 8.126 9.578 24.345-16.81 26.505 8.147 7.143-9.954 33.398 9.451 10.348 1.281-12.283-.675 25.55 23.127 12.81 2.312 22.909 14.996-17.408-32.38 7.183-11.724 11.342 14.645 36.044 21.326 52.336 22.048 6.462-18.235-26.48-37.986-43.207-26.448-7.027-12.008-14.26-25.783-21.574-10.432-14.471-5.397-11.135-28.824-34.46-25.494-18.717-6.692-46.763-6.125-39.983-32.188-14.173-12.21-35.996-6.88-46.98-14.06.184-16.245.424-39.84 23.029-28.507 21.413-3.152 29.602 22.232 52.107 18.715 13.835 21.36 49.799 7.899 60.658 34.14 26.225 13.894 62.316 16.022 83.495 35.82-4.602 11.073 13.268-.351 20.9 9.46 23.25-16.739 53.02 18.173 71.692 3.143 2.943-15.032 27.062-21.482 14.695-3.336 11.075 12.608 57.755 26.57 51.065-1.799-22.538 1.663-42.566-43.501-9.676-32.747 24.46-5.068 41.705 19.36 57.19 35.413 17.957-4.823 27.899-16.43 12.323-30.925-7.679-10.176-43.112-35.793-15.976-37.297 9.728 22.616.41-14.868 14.745 2.98 4.18 14.986 20.977 18.457 13.808-1.418 8.682 14.849 27.522 19.69 38.732 31.42-11.431-23.83-18.109-51.82-31.303-76.544-8.711-11.627 6.623-28.276 10.533-5.795 10.62 16.546 25.168 53.72 38.414 54.502 5.164-27.761-17.706-55.929-17.415-79.25 25.613 17.017 29.936 48.721 33.348 76.054-3.686 16.972 12.593 27.21 10.68 4.11 5.616-29.508 11.39 38.207 11.593 49.798 3.102 38.593-2.001 78.137-20.462 112.6-17.13 39.546-40.55 78.2-77.833 101.677-30.761 18.941-64.491 35.698-101.422 35.929-37.811 1.543-76.674 4.145-114.113-1.522m-19.53-129.14c-13.166-7.378-28.948 7.85-3.499 1.313zm-10.504-11.774c-1.26-6.716-36.624-18.409-30.716-9.047 5.994 4.495 27.366 23.759 30.716 9.047m304.78-23.597c11.278-20.423-15.009-25.155-13.534-3.213-6.35 11.118 12.03 20.533 13.533 3.213m-213.624-6.662c-6.837-12.788-13.447-14.288-15.896-3.172-17.538 5.804 13.199 6.777 15.896 3.172m18.114-10.804c-14.51 2.735-1.032-7.73-5.566-11.285-14.24 5.374-13.604 24.214 5.566 11.285m-21.62-13.65c-14.432-3.827-23.463-20.881-43.962-15.992-21.435-.928-41.472-5.13-59.044-12.653-4.444 5.738 20.056 8.892 21.967 20.721 13.8 5.159 23.358-9.856 37.969 1.052 15.016-7.606 36.501 17.355 43.07 6.873M227.288 802.659c-15.643-2.511-18-14.249-8.45-24.376 8.274 1.12 32.31 39.822 8.45 24.376m78.061-32.095c-4.897-6.921 10.99 5.012 0 0M197.192 755.43c2.784-5.973 4.195 6.484 0 0m84.053-23.477c-.569-14.619 11.755 9.16 0 0m-178.07-97.335c-2.172-10.024 6.47 3.37 0 0m112.665-33.246c4.722-7.421 5.127 3.98 0 0m-101.497-30.514c-9.213-29.07 20.479 8.682 0 0m-4.795-27.182c5.943-11.784 3.947 8.324 0 0m89.036-75.98c-.178-12.449-3.936-21.993-18.044-21.571 5.63-22.103 54.245-2.017 45.316 9.645-24.325.757 26.613 12.39-4.144 12.743-7.638.134-15.638 1.058-23.128-.817m10.59-14.302c-2.52-20.2-11.476 12.578 0 0m-50.465.23c-12.133-2.531-19.21-6.283-2.523-13.064 5.421-1.756 9.03 12.048 13.342 1.256 3.637 9.065-.524 24.554-10.82 11.807" style="fill:#588911" transform="matrix(1.03015 0 0 1.01623 -91.927 -320.972)"/><path d="M336.906 833.3c-11.817-8.355 15.166-6.455 5.448-20.626 30.055-9.663-28.253-36.073-30.272-11.933-15.57 13.591-24.103-19.787-43.083-15.528-11.893-16.79-31.165-16.635-41.733-5.285-2.708-7.613-34.731-9.172-22.861-18.014 11.341 11.485 17.04-.906 8.925-10.536 20.33-6.855 53.866 36.663 65.104 14.379-8.285-17.791 28.612 3.555 10.067 4.916-3.692 33.473 42.107 10.006 55.21 11.629-12.483-6.967-32.38-18.191-11.334-22.18 29.132 12.79-1.092-24.857-7.196-35.004-2.694-17.684-22.948-19.296-14.588-4.446-15.328 5.875-43.183-21.746-12.902-21.086 33.972-6.89-26.867-28.396-31.528-20.8-18.501 22.7-43.03-22.266-66.043-18.464-17.434-10.483-41.89-7.437-56.125-9.68-9.241-29.618-55.939-41.005-46.424-77.77-1.475-14.17 7.16-27.16 8.307-5.067 4.858 32.71 51.595 10.93 56.903 39.197 14.982 3.333 27.797 11.154 42.946 5.006 7.355 21.327 35.202 20.75 52.913 31.112 22.705 6.667 47.47-5.854 71.869-1.442 17.15.911 37.633-8.696 40.182 16.454 19.14 22.846 43.924-9.133 65.25 3.913 7.971-12.65-33.045-29.923-49.812-33.122-24.825-15.723-58.024-7.272-84.002-20.246-24.72-4.31-51.445 1.827-67.478-20.77-22.293-15.093-53.529-17.582-75.794-30.129 1.422-26.131-32.325-27.68-51.989-30.283-2.146-19.472 1.824-40.892 25.804-28.525 18.49 1.86 28.978 19.845 48.559 17.909 13.83 21.373 49.803 7.904 60.664 34.149 26.225 13.894 62.316 16.022 83.495 35.82-4.602 11.073 13.268-.351 20.9 9.46 23.25-16.739 53.02 18.173 71.692 3.143 7.675-17.96 21.952-18.924 16.926-1.1 12.257 8.114 49.956 25.9 55.304 14.649-2.541-18.057-16.898-26.433-32.682-34.596-10.761-28.146 30.621-19.409 41.897-10.249 20.479 6.947 25.796 38.399 52.48 27.387 7.415 14.809 29.192 10.248 12.181-3.396-12.125-21.443-40.49-38.5-46.265-59.657 6.105-17.962 21.054 18.574 14.326-4.25 10.474-6.876 27.568 36.665 23.898 4.306 5.971 5.439 28.53 23.488 39.233 27.322-11.777-25.196-20.583-51.997-32.59-77.476-6.846-11.307 8.664-23.583 11.428-2.988 10.62 16.546 25.168 53.72 38.414 54.502 5.164-27.761-17.706-55.929-17.415-79.25 25.613 17.017 29.936 48.721 33.348 76.054-3.686 16.972 12.593 27.21 10.68 4.11 5.616-29.508 11.39 38.207 11.593 49.798 3.102 38.593-2.001 78.137-20.462 112.6-17.13 39.546-40.55 78.2-77.833 101.677-30.761 18.941-64.491 35.698-101.422 35.929-37.811 1.543-76.674 4.145-114.113-1.522m.648-124.311c11.41-25.259-52.73-5.12-32.326-2.404 14.614-4.91 22.465-1.484 32.326 2.404m16.225-5.918c-6.557-11.02-14.775 9.999 0 0m257.872-34.282c11.279-20.423-15.008-25.155-13.532-3.213-6.35 11.118 12.029 20.533 13.532 3.213m-152.004-11.726c-1.587-16.736-26.47 10.343-2.107.515zm70.518-31.977c-11.968-7.86-2.24 16.693 0 0m-49.878-.676c-9.448-14.447-10.938 14.376 0 0m27.507-1.589c-12.798-28.85-19.797 18.732 0 0m75.378-13.522c-6.878-32.7-9.893 22.47 0 0M227.288 802.658c-15.643-2.511-18-14.249-8.45-24.376 8.274 1.12 32.31 39.822 8.45 24.376m78.061-32.095c-4.897-6.921 10.99 5.012 0 0m-108.157-15.134c2.784-5.973 4.195 6.484 0 0m84.053-23.477c-.569-14.619 11.755 9.16 0 0m-22.954-13.72c-16.21 2.453-45.756-2.81-50.49-19.08 4.157-21.373 14.884-8.561 23.895-.432 5.736-10.254 9.637 14.25 17.417-4.108 9.8-4.995 35.716-7.501 29.6 4.407-21.797-3.75 2.13 35.385-20.422 19.213m-155.115-83.615c-2.173-10.024 6.47 3.37 0 0m95.408-166.922c-.178-12.449-3.936-21.993-18.044-21.571 5.63-22.103 54.245-2.017 45.316 9.645-24.325.757 26.613 12.39-4.144 12.743-7.638.134-15.638 1.058-23.128-.817m10.59-14.302c-2.52-20.2-11.476 12.578 0 0m-50.465.23c-12.133-2.531-19.21-6.283-2.523-13.064 5.421-1.756 9.03 12.048 13.342 1.256 3.637 9.065-.524 24.554-10.82 11.807" style="fill:#4e6f2e" transform="matrix(1.03015 0 0 1.01623 -91.927 -320.972)"/><path d="M340.314 835.424c-6.502-10.845 27.721-36.38-2.825-42.05-21.721-15.747-29.808 29.027-44.727 2.105-23.144-9.966-42.939-33.544-71.933-21.298-14.308 5.917-28.272-22.304-9.362-7.554 15.555.297-9.029-25.919 14.677-14.077 18.251 6.884 56.142 37.66 54.479 5.425 12.203 6.877 15.101 7.016 7.3 17.914 5.345 27.802 39.34 1.922 56.061 7.89-7.09-10.808-36.973-15.77-11.65-23.563 26.763 15.01 16.877-35.026-2.743-34.107 8.362-6.523 31.633 9.119 8.004-5.429-14.263-1.43-17.418-28.909-3.692-11.051 17.451-6.47-18.208-28.068-23.15-9.386-.645-24.447-27.66-15.74-41.915-27.927-19.043-3.303-7.71 7.888-4.018 10.203-28.734 15.382-41.212-39.672-68.83-21.78-11.777-27.1-51.557 2.693-55.503-24.155-17.721-16.861-43.021-29.89-41.858-58.514 10.992-1.848 25.464 22.757 43.51 16.554 14.813-.904 9.425-3.163 14.24 12.155 7.389 10.14 18.862-8.684 24.324 9.665 11.885 12.924 26.071-21.174 24.637 5.684 20.066 16.02 46.432 22.824 70.655 28.74 7.864-11.13 34.128-14.513 48.205-3.263 8.613-10.304 31.48-8.558 41.383-3.344 2.544 31.453 34.851 25.38 53.386 13.293 14.695 7.505 30.767 3.475 10.582-9.95-19.632-12.905-42.98-16.979-61.635-30.141-15.198 11.278-40.65-12.382-49.058-3.963-12.523.497-27.916-16.087-35.953-4.799-11.748-9.2-22.146-10.043-33.272-5.13-7.495-23.953-26.25-14.432-41.363-30.802-14.971-2.329-35.125-7.434-49.436-12.818 4.568-24.742-21.227-29.02-38.506-35.092-21.026 16.406-11.852-41.262 10.222-23.518 19.064-.287 27.812 21.809 47.456 17.76 20.327 17.19 51.239 13.527 66.84 37.996 27.207 6.274 56.943 12.264 80.098 27.44-4.244 13.22 13.022 4.41 23.407 11.398 25.783-17.436 60.093 28.415 76.342-2.925 7.783-2.941 16.565 20.98 30.254 22.892 9.013 16.49.808-15.21 16.824-1.868 13.363 7.921 26.657 2.594 13.647-9.753 8.92-22.212-43.493-18.516-25.971-44.262 26.637-1.95 52.084 12.138 64.577 35.304 11.812 11.99 29.79-10.044 40.514 10.715 18.305-7.67-19.298-26.441-18.107-41.476-7.04-8.961-41.407-32.15-20.405-36.737 8.543 12.215 6.586 8.576 7.92-.796 11.95 1.965 15.586 25.541 29.088 14.237 22.372 6.194 20.567 37.15 36.753 44.069-1.042-26.027-13.059-49.144-21.702-74.636-5.534-11.572-26.175-40.73-9.833-41.887 15.405 23.69 21.246 55.14 44.177 72.86 12.933 14.778.02-36.987-2.846-46.654-7.33-17.851 2.952-22.679 10.66-4.24 6.249 22.17 1.01 57.14 14.976 70.85 4.62-11.576 8.49-26.937 12.027-4.788 12.841 14.008-12.667 52.824-3.6 51.986 10.363-13.275 3.454 25.98 4.124 33.162-5.285 28.21-18.193 54.402-29.952 80.303-15.296 30.148-36.245 57.19-64.61 75.975-32.052 20.631-68.307 37.045-107.08 36.742-35.254.864-70.562 1.392-105.814.416m255.514-134.947c-5.816-27.805-6.936 27.722-.057 3.761zm-242.049 2.594c-6.557-11.02-14.775 9.999 0 0m256.962-23.781c14.09-11.842 3.387-51.34-11.555-24.722-8.645 18.112-16.927 28.169 11.555 24.722m-363.2-3.31c-8.634-8.112-3.62 7.527 0 0m190.557-10.75c-11.34-1.88 3.404 3.669 0 0m11.188-1.893c-11.34-1.878 3.405 3.67 0 0m10.36-6.274c-1.586-16.736-26.469 10.343-2.106.515zm-92.76 0c-4.476-7.541-2.954 7.026 0 0m-16.433-8.859c-11.34-1.878 3.405 3.67 0 0m123.658-17.624c-17.12-12.856 7.897 13.603 0 0m56.054-5.494c-11.968-7.86-2.24 16.693 0 0m-49.878-.676c-9.448-14.447-10.938 14.376 0 0m27.507-1.589c-12.798-28.85-19.797 18.732 0 0m73.542 4.012c-11.549-7.377-27.87-22.02-9.002-3.104 2.082 1.047 7.51 8.352 9.002 3.104m2.339-17.534c-2.234-33.105-13.92 21.257 0 0m41.403-7.225c-6.012-5.185-.439 8.891 0 0m4.682-17.367c-4.22-10.974-14.908-51.35-12.591-16.102 1.894 3.546 8.283 30.53 12.591 16.102M174.815 539.78c-4.638-7.343-4.638 7.343 0 0m38.711 256.537c-4.378-19.396 18.257 8.928 0 0m91.823-25.754c-4.897-6.921 10.99 5.012 0 0m-108.157-15.134c2.784-5.973 4.195 6.484 0 0m105.26-36.106c1.65-15.786 22.071 8.728 0 0M247.21 716.1c-13.057 1.675-55.537-13.275-28.896-23.87 14.262 12.559 28.043 10.815 43.468 6.578 7.292 11.907-.552 22.239-14.572 17.292m34.83-11.746c2.513-7.011 7.834 6.748 0 0m-4.289-6.052c-9.506-3.894-39.862-5.305-11.809-5.983 5.49-11.949 21.273 9.918 11.81 5.983m320.68-230.294c-20.777-31.647 27.581 9.088 4.266 4.672zM209.779 466.5c-16.875 2.821-12.121-26.324-28.238-23.124 10.03-15.958 46.924-1.615 46.466 12.183-28.28-.504 21.632 12.172-4.644 11.789q-6.792-.416-13.584-.848m-.604-13.106c-2.52-20.2-11.477 12.578 0 0m-49.171-2.709c-23.48-4.074-.363-9.588 7.043-6.752 8.082-8.721 2.043 21.889-7.043 6.752" style="fill:#4a7114" transform="matrix(1.03015 0 0 1.01623 -91.927 -320.972)"/><path d="M340.314 835.424c-6.502-10.845 27.721-36.38-2.825-42.05-21.721-15.747-29.808 29.027-44.727 2.105-23.144-9.966-42.939-33.544-71.933-21.298-14.308 5.917-28.272-22.304-9.362-7.554 15.555.297-9.029-25.919 14.677-14.077 18.251 6.884 56.142 37.66 54.479 5.425 12.203 6.877 15.101 7.016 7.3 17.914 5.345 27.802 39.34 1.922 56.061 7.89-7.09-10.808-36.973-15.77-11.65-23.563 26.763 15.01 16.877-35.026-2.743-34.107 16.974-11.358 39.876 29.405 44.248-4.576-4.825-10.287-12.694-14.996 1.457-16.012-23.612-15.13-58.141-7.666-81.925-24.894-21.903-17.239-46.4 3.2-66.595-13.903-21.275-12.896-48.493-18.399-74.231-19.867-15.244-9.662-36.645-32.946-50.115-51.192-12.888-22.713 5.097-22.06 15.99-6.164 17.42 5.446 35.585 5.556 46.839 22.413 19.503 11.865 37.657-4.471 48.68 15.721 22.196 10.995 51.135 30.273 75.27 16.964 25.222-.9 50.733.268 73.778 4.706 7.052 34.566 46.662 12.605 69.7 15.839 13.59-.837 56.55 4.922 38.146-18.187-29.456 3.627-55.399-9.417-81.002-22.06-25.11-6.97-52.332-13.146-77.217-13.608-19.296-12.517-49.633-3.658-65.359-16.87-18.92-18.276-44.213-22.183-68.07-31.65-26.311 3.484-13.558-31.59-39.608-31.103-10.505-12.837-38.357 5.02-28.719-17.818.475-29.543 40.572-6.086 52.689 3.915 20.952 4.328 45.02 16.276 65.815 24.286 16.967 24.168 51.587 19.9 76.495 32 16.046-3.49 18.513 22.122 23.02 16.744 24.462 8.563 53.051-3.533 77.288 13.997 14.778 8.356 21.335-30.622 27.96-3.88 22.288 18.328 43.07 38.62 74.484 38.234 16.137 15.4 39.863 9.86 50.265 20.86 19.428-12.044-23.528-24.447-28.2-39.327-21.812-.381-44.01-12.524-50.162-32.424-15.902.638-38.07-28.332-12.798-27.865 31.21-3.178 45.824 26.3 66.463 40.98 26.197-1.856 38.779 35.648 61.79 25.901.275-28.6-30.839-31.162-42.941-53.16-6.308-17.036-40.73-30.813-30.642-47.027 8.272 3.37 14.334 16.997 9.763 1.157 13.342-4.329 16.642 26.087 30.887 13.027 22.602 3.781 21.715 44.164 37.795 42.462-1.697-28.774-15.794-55.142-26.95-81.39-12.112-7.76-16.522-50.278-1.367-26.052 12.853 23.206 20.846 52.184 42.39 68.112 8.876-1.43-4.928-42.061-6.13-57.252-3.586-25.364 20.954 15.12 14.578 26.04.638 15.227 6.335 69.903 18.977 33.9 9.65 5.843 8.63 43.119-.306 58.16-4.895 9.725-8.668 25.611 7.385 19.67 1.71 28.545-15.161 53.383-23.151 79.714-13.641 28.821-29.016 57.868-53.704 78.562-25.38 22.297-56.641 37.75-88.75 47.397-47.112 8.037-95.82 4.719-143.487 4.835m156.663-111.141c2.864-22.76-7.734 13.178 0 0m-21.32 1c31.18-13.187-62.925-16.353-21.373.099 6.915 2.306 14.409 1.544 21.373-.099m-74.773-4.748c28.84-5.338-21.456-17.442-19.549-.388 6.48 3.947 12.675-1.302 19.549.388m33.134.844c-4.638-7.343-4.638 7.343 0 0m161.81-20.853c-3.54-27.066-14.3 20.802-.31 6.225zm14.913-21.236c16.303-15.697.72-51.648-17.642-24.265 4.905 15.902-15.006 28.535 17.642 24.265m-83.484-7.837c-7.282-12.948-20.007 10.602-.408 1.148zm-21.521-9.576c-27.1-11.252 3.477 27.05 0 0m124.698-70.015c-1.417-13.438-16.566-60.182-12.859-21.819 3.366 10.642 1.102 59.388 12.86 21.82m-455.62-52.083c-4.638-7.343-4.638 7.343 0 0m38.711 256.537c-4.378-19.396 18.257 8.928 0 0m91.823-25.754c-4.897-6.921 10.99 5.012 0 0m-108.157-15.134c2.784-5.973 4.195 6.484 0 0m105.26-36.106c1.65-15.786 22.071 8.728 0 0M247.21 716.1c-13.057 1.675-55.537-13.275-28.896-23.87 14.262 12.559 28.043 10.815 43.468 6.578 7.292 11.907-.552 22.239-14.572 17.292m351.22-248.092c-20.776-31.647 27.582 9.088 4.267 4.672zM209.78 466.5c-16.876 2.821-12.122-26.324-28.24-23.124 10.03-15.958 46.925-1.615 46.467 12.183-28.28-.504 21.632 12.172-4.644 11.789q-6.792-.416-13.584-.848m-.605-13.106c-2.52-20.2-11.477 12.578 0 0m-49.171-2.709c-23.48-4.074-.363-9.588 7.043-6.752 8.082-8.721 2.043 21.889-7.043 6.752" style="fill:#334a2c" transform="matrix(1.03015 0 0 1.01623 -91.927 -320.972)"/><path d="M421.967 835.265c-23.914-3.685-52.708 6.038-72.966-10.574-.761-12.912 28.375 3.426 12.274-11.206-13.796-6.789 22.778-9.392-2.687-17.146 1.171-7.352 42.134-14.44 11.22-18.21-21.964 7.216-22.922-36.898-13.834-36.22 28.153 6.653-24.435-14.927 1.028-11.817 10.88 21.073 24.166-16.07 9.07-23.047 23.61-1.857-20.318-14.264-29.973-12.487-16.678-4.202-30.144-5.737-47.24-18.2-2.777 5.996-31.962-19.692-36.914-.378-8.806-9.866-18.967 5.048-29.87-13.853-14.045-13.728-28.472-1.506-42.76-15.98-21.107-8.308-33.937 10.725-41.891-13.752-14.068-15.951-42.923-29.106-37.185-54.555 10.496 17.634 36.976 13.895 44.635 26.455-16.008 13.342 13.135-2.356 18.562 10.293 13.687.626 28.152 8.773 40.316 1.759 5.13 25.474 43.301 25.113 64.032 36.082 17.674-2.77 29.63-13.261 51.433-6.08 8.744 4.492 23.123-6.01 33.705 4.781 13.193-10.23 16.675 26.879 36.858 19.503 24.767-9.645 35.701-1.905 58.525-4.812 8.76-5.995 16.081 8.938 27.43-6.176-2.917-27.291-45.904-3.453-62.225-23.87-19.188-5.006-36.615-25.685-54.193-18.437-8.434-3.308-25.955-.568-35.767-12.706-8.91 16.226-29.629-8.112-43.073.394-14.773-15.13-36.815 4.182-41.71-23.131-17.95 3.709-26.727-16.499-38.595-12.995-18.702-4.909-45.152-5.873-43.822-32.27-18.873-.722-28.292-20.824-45.384-10.578 5.621-20.449 34.827-28.974 48.495-6.094 23.675-.078 44.24 18.906 67.6 23.352-2.296 25.076 43.243 14.9 57.473 30.932-21.55 4.247 10.644 20.994 9.06 1.66 15.464 2.784-17.778 24.445 9.72 19.702 22.888 7.918 48.374-1.077 72.104 2.308 16.323 12.131 42.127 9.87 52.559 2.687 7.822 8.754-1.922 19.75 16.433 11.583 16.578 9.748 20.546 25.513 44.46 23.31 19.19-5.856 45.081 25.63 51.215 20.173 8.242-13.474 23.523 18.371 24.927-4.252-18.822-12.87-31.64-33.312-54.544-35.026-18.153-4.95-29.306-17.34-23.355-33.89-13.732 7.759-23.867-5.658-9.074-15.53 31.403-5.94 35.159 37.462 63.687 36.913 4.47 5.48 17.498-2.582 20.78 11.89 7.024 14.77 27.314 16.776 34.29 8.183-5.072-29.162-37.893-29.07-46.954-56.554 10.093 6.36 24.502 5.87 24.632-6.383-24.303 6.231.726-19.681 7.064 1.257-.03 14.393 21.49 39.673 18.883 12.047-6.887-23.792-12.787-45.565-19.206-68.59 13.17 23.8 39.158 42.06 33.814 72.493 11.74 9.67-.797 35.586 7.047 41.194 1.88-17.163 14.282-34.085 14.244-44.84-18.076 5.062-15.146-36.808-14.434-48.846 3.627 11.284 2.245 51.538 16.584 40.7-3.603-15.577 11.845-28.128 5.437-5.597 11.055 21.828-15.35 45.924-6.468 63.321 25.642-1.504-2.364 33.992 1.447 47.276-9.289 16.756-17.322 34.074-22.806 45.22-8.836 25.663-24.773 48.645-45.983 65.599-19.479 18.192-43.096 32.98-69.15 38.622-20.282 13.984-48.368 10.851-72.31 14.474l-4.667.138zm-42.81-66.35c-14.968.144-18.027-36.419-17.371-7.97 1.742 3.885 15.766 12.266 17.37 7.97m6.377-19.16c-6.987-7.742-6.987 7.74 0 0m167.865-8.556c3.63-9.272-9.943 9.222 0 0m-54.58-9.573c-9.302-2.364-.714 11.134 0 0m91.84-6.447c13.42-15.021 5.013-50.697-2.786-21.529 7.108 3.97-10.69 46.657 2.786 21.53m-202.327 5.659c-5.722-6.082-.585 6.51 0 0m169.888-3.271c-3.702 3.48 2.518 7.218 0 0m-61.243-3.284c2.864-22.76-7.734 13.178 0 0m-21.32 1c31.18-13.187-62.925-16.353-21.373.099 6.915 2.306 14.409 1.544 21.373-.099m103.05-5.308c-7.672-1.386-4.68 11.507 0 0m-177.823.56c28.84-5.338-21.456-17.442-19.549-.388 6.48 3.947 12.675-1.302 19.549.388m33.134.844c-4.638-7.343-4.638 7.343 0 0m73.646-22.678c-2.006-4.025-7.849 6.293 0 0m83.928-14.742c6.004-12.697 26.52 12.885 23.051-12.384 12.297-18.968-6.226-36.5-21.324-19.881-10.77-12.518 10.435 20.777-5.383 25.16-5.48 7.86-6.574 21.34 3.656 7.105m-77.039-3.597c-11.339-1.878 3.405 3.67 0 0m12.704-8.91c-7.282-12.947-20.007 10.603-.408 1.15zm-21.521-9.575c-27.1-11.252 3.477 27.05 0 0m49.842 3.352c-11.34-1.879 3.405 3.67 0 0m-60.954-13.84c-9.74-7.295-2.073 7.832 0 0m-301.161-8.671c-5.236-7.904-5.877 9.853 0 0m302.56-3.933c-13.241-2.134 1.294 3.354 0 0m104.893-42.255c-5.241-10.876-5.241 10.876 0 0M270.77 581.527c-2.948-11.789-10.954 6.75 0 0m-10.642-4.387c-9.672-11.342-7.876 10.275 0 0m-21.912-9.097c-9.338-7.86-4.446 10.466 0 0m-55.104-7.242c-18.056-9.659.634 4.903 0 0m21.187-4.49c-8.197-11.318-24.78-1.945-3.763 3.612l2.454-.943zm-26.914-17.976c-18.258-13.814-2.422 28.79 0 0m61.67 173.657c-14.026-2.262-19.643-15.817-1.572-5.88 9.595 8.354 23.14-18.042 22.109 5.99-6.57 1.767-13.85.564-20.537-.11m-23.216-15.204c2.784-5.973 4.195 6.484 0 0m-67.132-98.366c4.638-7.343 4.638 7.343 0 0m161.434-9.244c4.492-14.832 10.404 7.01 0 0m227.993-31.817c-10.804-11.312 11.068-13.7 12.646 1.632-3.845 2.251-9.241.878-12.646-1.632m-427.256-45.983c7.071-15.659-.567 10.986 0 0" style="fill:#324e15" transform="matrix(1.03015 0 0 1.01623 -91.927 -320.972)"/><path d="M421.967 835.265c-23.914-3.685-52.708 6.038-72.966-10.574-.761-12.912 28.375 3.426 12.274-11.206-13.796-6.789 22.778-9.392-2.687-17.146 1.171-7.352 42.134-14.44 11.22-18.21-22.187 7.643-23.324-39.57-12.402-35.713 9.754 4.723-2.47 30.352 21.028 26.212 32.244 6.01 12.365-25.61-6.84-23.488 11.721-31.267 45.248 10.136 68.417 1.17 27.743 4.592 47.998-14.785 74.42-16.017 10.857.307 29.614-8.091 23.902 9.827 19.954 17.352 27.94-38.93 35.977-20.634-1.63 12.63 19.767-15.756 11.736 5.318-.766 21.673 14.53-21.716 17.12-20.722-5.585-13.596-12.29-30.67 8.186-19.62 27.192-2.227 10.242 23.26 3.057 33.725-7.569 25.533-23.592 47.605-44.312 64.063-19.479 18.192-43.096 32.98-69.15 38.622-20.282 13.984-48.368 10.851-72.31 14.474l-4.667.138zm77.94-88.486c-8.956-9.73-4.25 17.681 0 0m51.592-21.195c6.382-18.481 11.488 1.286 0 0m-312.443-13.592c-14.026-2.262-19.643-15.817-1.572-5.88 9.595 8.354 23.14-18.042 22.109 5.99-6.57 1.767-13.85.564-20.537-.11m291.93-.475c-21.723 2.923 5.449-18.52-17.44-14-14.587 5.293-24.881 20.514-45.487 13.167-27.932-6.788-54.057.593-80.168-12.101-28.769-7.895-60.747-2.053-87.035-18.006-23.044-15.8-48.64-5.486-71.642-15.698-22.824-15.198-52.238-18.379-79.066-23.14-12.995-19.569-46.116-33.616-44.353-58.038 6.943 17.08 43.363 5.492 36.908 23.126-10.75 9.71 16-5.044 19.47 7.274 23.41 8.012 43.15 1.52 59.792 22.624 26.57 9.777 51.774 20.763 79.142 9.591 26.81 3.083 57.414-3.167 72.344 21.894 23.967 10.605 48.574-5.281 73.607-.743 10.037 1.875 23.803-4.502 29.817 6.28 18.465 10.562 47.696 9.926 67.163 2.403-20.425-14.564-46.352-20.474-67.903-32.163-25.76-2.282-53.223-.44-74.659-17.942-23.019-13.621-52.104-7.127-74.35-21.187-22.776 7.85-46.413-9.996-70.589-7.146-15.544-11.239-33.247-27.594-55.339-30.3-17.188-6.485-40.495-7.88-41.994-30.14-15.123-11.333-63.192-12.53-27.633-32.657 17.385.67 26.639 20.095 44.978 16.847 13.687 16.521 52.894 10.286 51.586 33.091 17.448 8.305 42.529 8.156 55.913 20.463-22.116.912 12.595 23.041 7.6 1.185 20.232-.439-16.956 24.69 11.667 19.403 22.887 7.918 48.373-1.077 72.103 2.308 16.323 12.131 42.127 9.87 52.559 2.687 7.821 8.756-1.92 19.75 16.436 11.583 16.97 22.188 45.944 26.357 71.543 34.958 19.81 9.83 41.367 22.727 61.11 25.33 3.013-22.034 18.332 24.554-6.046 21.882-21.579-4.597-20.133 24.706-40.033 17.165m-337.523-68.799c-5.236-7.904-5.877 9.853 0 0m77.308-61.19c-2.948-11.79-10.954 6.748 0 0m-10.642-4.388c-9.672-11.342-7.876 10.275 0 0m-21.912-9.097c-9.338-7.86-4.446 10.466 0 0M204.3 556.31c-8.197-11.317-24.78-1.944-3.763 3.613l2.454-.943zm-26.914-17.975c-18.258-13.814-2.422 28.79 0 0m38.454 158.453c2.784-5.973 4.195 6.484 0 0m365.008-39.874c-25.748-11.89-41.023-39.75-69.544-43.832-19.459-2.802-20.298-18.435-25.894-31.478-27.78 4.662-5.356-28.71 10.805-11.47 20.203 15.247 32.528 38.953 61.034 42.083 8.84 15.2 31.104 23.264 40.023 32.525-10.232-.272-7.132 15.576-16.424 12.172m41.888-2.242c-11.765-13.855 36.197-35.063 22.936-7.724.619 9.944-18.185 15.718-22.936 7.724m-12.87-14.834c-14.36-15.9 3.461-49.81-7.864-72.42-.987-16.553-24.3-55.934-17.563-57.972 5.979 15.829 21.813 26.894 28.739 40.736.3 23.863 4.13 47.504 7.021 70.94 11.826-18.37 26.408-43.312 6.023-56.885 9.341 19.48 19.259-17.314 19.909 9.466-3.9 23.836-13.63 49.307-27.847 67.956l-3.266-.456zm-21.959-38.74c-11.56-10.862-31.525-15.863-35.536-34.324 10.474 18.265 36.845-12.16 10.775-5.446 15.251-22.187 29.358 25.443 32.254 38.282.622 7.254-5.667 9.095-7.493 1.489m-277.765-11.92c4.492-14.832 10.404 7.01 0 0m231.016-33.233c-15.202-25.51 27.652 14.745 0 0m78.417-21.802c1.281-24.465 5.47 13.868 0 0" style="fill:#283526" transform="matrix(1.03015 0 0 1.01623 -91.927 -320.972)"/><path d="M415.734 829.253c-12.532-10.65 1.747 9.092-16.214 3.427-23.498 7.701 7.612-23.637-14.716-21.634-1.73 7.905-6.363 21.685-17.82 17.677 16.125-14.972-4.041-38.726 18.191-45.529-5.51-7.885-37.876-12.472-9.924-12.425 24.269 8.239 28.826-18.865 7.045-25.623-21.027 11.195-3.152-27.262 9.263-9.475 24.98 11.187 50.998 13.99 77.997 8.719 11.95-9.994 22.384-11.645 29.25-6.88 8.164-10.525 30.376-9.132 39.803-7.572-5.178 12.71 10.957 10.78 12.256 17.922 3.377-7.583 27.805-50.733 21.236-23.82-12.878 30.97 16.526-19.153 14.263-4.634-7.119 14.228 1.317 23.86 6.16 4.697 2.445-17.594 23.184-7.26 11.189-21.64-3.51-2.766-13.858-35.297 4.031-14.909 17.466-16.866 23.117 24.561 10.82 17.273-8.359-24.175-2.508 36.815-20.269 44.283-16.231 23.57-39.274 42.543-63.81 57.218-28.577 9.374-50.495 24.874-82.386 25.168-12.109-.794-26.293 7.058-36.365-2.243m81.687-52.784c-10.62-18.808-3.78 7.99 0 0m2.487-29.69c-8.957-9.73-4.251 17.681 0 0m-146.075 1.084c10.762-15.215 4.785 13.834 0 0m197.666-22.28c6.382-18.48 11.488 1.287 0 0m-20.512-14.066c-21.25 2.479 5.363-19.555-19.122-13.897-13.651.727-16.003 22.217-36.226 13.638-26.835-7.32-54.278 1.415-78.688-10.618-28.437-9.435-60.467-3.616-87.548-16.444-15.361-10.561-48.959-13.396-51.187-30.562 24.543 1.901 46.207-12.665 72.401-5.728 15.96 1.92 32.71 1.97 38.1 19.393 27.337 10.619 55.444-1.85 83.74-.003 24.27 3.958 41.654 20.846 70.794 14.403 18.715 1.683 25.905-10.112 4.675-15.173-26.685-8.353-49.601-29.303-77.961-23.599-24.574-.75-53.651-17.474-68.893-28.272 11.722-6.682 21.64 9.798 33.86-3.601 14.067 3.37.048 33.254 23.472 15.348 12.92-16.235 30.927 16.978 51.071 14.106 28.552 1.444 51.216 24.292 77.848 30.85 13.107 15.27 8.676-22.088 17.62 3.658 2.062 14.367-8.775 16.931-14.257 11.992 2.427 16.449-30.49 3.45-26.21 25.703-4.557.875-9.032-.568-13.49-1.194m-199.53-35.627c-8.112-12.035-9.724 11.707 0 0m-40.093-11.285c-15.27-12.353-6.032 13.69 0 0m-41.957 5.7c4.638-7.342 4.638 7.344 0 0m-18.182-3.145c-6.86-10.238 32.121-25.455 19.114-6.657-6.432 2.46-11.005 10.254-19.114 6.657m349.624-10.257c-25.757-11.871-41.022-39.743-69.544-43.82-20.726-1.882-32.3-30.437-4.27-30.098 10.91 12.371 30.253 26.902 49.679 28.254 3.976 11.669 50.404 36.047 24.135 45.664m45.242.132c-15.028-11.102 9.074-19.16 20-25.293 3.062 12.761-12.53 32.818-20 25.293m-428.898-5.646c2.784-5.973 4.195 6.484 0 0m394.658-8.512c4.65-10.121 8.745 9.588 0 0m17.457-3.451c-10.983-20.361 2.216-54.557-8.21-80.073.872-13.383 10.917 7.187 9.768 9.933 8.505 17.418 5.332 47.505 7.15 61.852 7.605-7.841 14.155-49.814 22.861-38.943-6.204 14.102-10.81 53.157-31.569 47.23m-466.815-4.431c2.916-6.97.82-25.209 15.44-18.962 9.632-.911 22.864 3.344 16.192 11.718 10.425-19.419 32.638 10.609 8.12 5.652-10.023.192-21.763 2.05-19.995-10.29-8.806-2.21-12.923 15.154-19.757 11.882m55.014-13.182c5.852-9.945 3.122 9.535 0 0m-66.732-1.23c-17.945-6.996-30.049-36.891-3.898-20.418 2.24-.557 11.285 31.07 3.898 20.418m211.87-8.02c7.88-5.79 26.303-9.727 9.25-.675-2.51.238-6.975 3.745-9.25.675m-32.633-4.682c1.172-6.25 7.044 6.472 0 0m21.445 1.057c2.987-6.187 7.864 4.076 0 0m256.451-7.838c-9.98-8.098-32.506-20.634-33.674-30.906 13.42 14.86 22.8-13.643 31.897 6.87 4.358 3.26 15.288 42.89 1.777 24.036m-313.327-1.96c-7.956-4.584-34.016.337-26.953-13.959 6.056 11.366 51.252 1.603 32.394 17.19zm26.187 3.197c.752-8.685 10.487 7.215 0 0m-161.383-2.023c2.784-5.973 4.196 6.484 0 0m76.68-30.174c-16.59 4.723-18.522-15.633-3.754-13.486 2.254 5.19 30.011 22.175 3.754 13.486m-30.06-7.547c5.688-9.538 12.748 8.468 0 0m-21.134-7.048c-2.708-9.88-15.636-48.302-.271-23.33.22 4.614 8.56 26.344.27 23.33m13.675-4.526c4.195-11.093 2.083 12.828 0 0m13.975-3.683c-5.653-17.926 20.415 12.17 0 0m413.391-.15c-1.771-12.347 10.892 12.088 0 0m-429.914-12.8c-8.423-17.74 17.891 6.731 0 0m-32.702-4.788c1.758-14.287 13.117 8.74 0 0m2.315-13.576c-1.139-10.87 11.771 7.676 0 0" style="fill:#253219" transform="matrix(1.03015 0 0 1.01623 -91.927 -320.972)"/><path d="M419.821 831.264c-12.111-4.708-15.389-19.736-13.447-24.585-17.853-3.97-28.292 8.447-28.899 17.82-20.172 12.445 8.388-20.013-5.528-31.009 23.104-1.997 14.842-22.034-4.443-18.415-13.471-11.91 50.557 13.133 38.312-18.636-2.03-12.51-44.131-10.76-21.358-20.423 24.465 6.677 46.425 20.098 72.394 22.003 10.475 21.234-1.775-7.558 17.237-7.716 10.53-6.79 24.468-20.766 15.173 1.286-4.494 26.463 29.01.244 11.863-13.367 8.855-3.617 31.611-11.743 32.996-.731-2.762 13.05 22.165 2.794 9.485 20.145.291 13.649 13.634-30.466 27.63-18.145 14.822-28.25-1.583 23.701 16.777 8.498 16.652 32.455-51.383 7.93-28.85 36.7-9.859 17.973-36.54 29-55.478 31.13-13.647 11.571-42.136 15.099-65.412 16.144-6.238-.244-12.922 4.28-18.452-.699m102.774-51.621c-5.896 3.004-19.468-17.841-13.521 1.796 4.074 3.405 9.887.973 13.521-1.796m-23.31-1.58c-4.958-20.939-16.226-3.043-.926 1.894zm-104.427 52.465c5.865-18.976 25.903 10.442 1.9 1.833l-1.42-.77zM560.97 775.45c1.48-9.673 1.787 7.725 0 0m-93.23-66.948c-24.054-12.176-50.253 1.11-74.074-12.019-16.44-4.23-37.582-4.88-47.42-14.776-10.543 22.935-56.358-4.998-34.851-28.062 8.358-8.886 32.443-.012 45.281 2.434 3.92 19.716 30.211 11.078 29.547 31.84 19.424-17.49 47.251-21.468 74.417-17.694 19.173 16.185 45.443 12.438 69.427 14.362 22.491.7 21.804-14.999 1.362-19.495-15.049-6.682-41.422-14.833-48.743-22.812 27.487-.149 49.962 18.215 73.129 28.026 11.173 6.219 38.889 10.47 12.493 16.048-16.72 3.438-21.708 26.648-36.252 18.469 6.97-21.43-36.82-7.857-44.234 3.103-6.597 1.397-13.401.885-20.081.576m-52.37-25.471c29.837-13.059-24.045-4.83-3.566 1.192zm-83.797-3.8c17.503-17.122-26.404-32.252-6.779-13.989 6.016 1.981-7.998 22.725 6.78 13.989m287.23 17.885c-6.685-20.8 13.452 7.656 0 0M296.219 675.27c-8.127-3.272-48.87-18.107-32.003-18.917 7.66 4.841 47.883-16.96 31.075 3.584-17.255-1.06-10.34 14.992 2.374 7.41.02 3.948 14.089 16.021-1.446 7.923m272.064-29.3c-21.248-18.55-41.041-31.675-66.81-40.919-25.41-7.586 10.242-33.374 16.45-8.465 22.05 16.773 59.456 22.874 67.242 52.794-4.031 8.957-12.417-.258-16.882-3.41m-55.943-48.494c-5.98-10.052-5.097 9.826 0 0m115.15 54.5c-10.253-15.028 33.203-9.35 6.62.791l-3.151-.123zM427.46 636.74c-8.986-.882-34.459-23.72-13.138-20.001 4.723 34.695 34-7.328 47.443 14.745 20.823 12.966-21.191 7.874-34.305 5.256m-242.855-5.628c-9.53-15.784 22.126-.962 0 0m-19.048-6.083c-1.99-18.807 15.124 9.84 0 0m443.75-14.988c-3.723-17.688 9.07-20.056 6.862-1.83-.05 11.716-7.65 28.986-6.862 1.83m16.85 10.97c4.15-16.075 7.456-2 0 0m-241.194-4.882c-1.64-9.774 9.894 4.475 0 0M278.31 596.53c4.45-11.67 11.583 7.737 0 0m307.687-1.892c-13.109-.173-34.558-23.48-9.925-15.143 7.891-11.268 25.07 30.754 9.925 15.143m21.445-19.974c4.155-12.258 3.619 14.796 0 0" style="fill:#1c2617" transform="matrix(1.03015 0 0 1.01623 -91.927 -320.972)"/><path d="M420.447 827.29c-6.343-18.552 22.511 12.45 0 0m21.03-.52c7.436-7.573 25.376-27.287 2.599-16.708-17.233-20.657-56.477 7.428-65.627-12.574 10.648-15.637 41.811-27.742 29.647-51.504 18.788 11.172 43.69 11.577 59.136 23.892-7.293-15.317 25.515-30.245 16.66-5.754 3.261 17.19 25.229 20.985 10.092 37.843-1.356 19.795-24.995 12.567-33.1 5.627-2.226 8.145-8.562 22.972-19.406 19.178m26.943-29.317c2.368-15.63 24.271 9.136 10.888-11.606 5.33-16.186-24.07-10.883-8.145-.083-9.093 2.272-14.482 31.777-2.743 11.689m-37.199-6.056c-8.553-13.385-20.963 14.472 0 0m14.452-14.882c11.858-17.93-23.335-6.971-6.99 3.497-2.571 9.66 7.284-1.245 6.99-3.497m40.909 45.004c6.723-10.046 4.059 6.08 0 0m14.957-9.792c-12.166-15.756 27.182-29.376 31.649-27.598 5.344 12.051 18.308-16.18 21.23 6.539-14.062 9.543-36.149 23.86-52.879 21.06m13.972-38.577c-7.752-17.82-13.637-44.161 14.3-37.581-7.702 17.912 27.782 8.017 7.158 27.312-6.593 10.039-23.066-14.057-14.417 5.91 2.494 4.1-4.467 6.746-7.04 4.36m-17.246-2.732c10.43-22.76 18.483 3.264 0 0m51.37-8.151c3.97-25.306 18.378 3.77 0 0m25.174-1.163c-31.182-6.478 15.973-15.593 4.696 1.85l-2.822-.554zm-190.634-20.06c6.094-2.085 4.983 3.513 0 0m69.603-39.71c-10.38-10.55-61.565 4.22-29.219-13.841 2.726-6.16 3.669 14.451 13.812 1.383 16.125-.89 31.917 1.277 46.733-4.396 21.326-.734 58.116 11.248 69.194-11.103 30.438 3.014-7.823 32.566-22.69 18.107-28.761-5.579-49.844 27.24-77.83 9.85m2.646-19.247c-3.127-13.127-28.02-1.22-7.528-9.738 15.124-3.079 31.93 17.342 7.528 9.738m112.421-38.79c-18.581-9.512-.176-22.035 5.989-4.491 16.458 3.957 5.126 19.746-5.989 4.492m-18.4-15.194c2.037-25.019 13.654 4.647 0 0m-32.885-18.71c11.688-4.512-.246 8.535 0 0m93.612-4.35c2.14-20.412 4.885 20.25 0 0" style="fill:#171b13" transform="matrix(1.03015 0 0 1.01623 -91.927 -320.972)"/></svg>